<?xml version="1.0" standalone="no"?>
<!DOCTYPE svg PUBLIC "-//W3C//DTD SVG 20010904//EN"
 "http://www.w3.org/TR/2001/REC-SVG-20010904/DTD/svg10.dtd">
<svg version="1.0" xmlns="http://www.w3.org/2000/svg"
 width="600.000000pt" height="584.000000pt" viewBox="0 0 600.000000 584.000000"
 preserveAspectRatio="xMidYMid meet">

<g transform="translate(0.000000,584.000000) scale(0.100000,-0.100000)"
fill="#000000" stroke="none">
<path d="M2780 5829 c-643 -55 -1202 -280 -1689 -679 -123 -101 -337 -317
-435 -440 -232 -290 -433 -679 -537 -1040 -131 -455 -149 -961 -53 -1429 92
-448 303 -897 592 -1258 343 -429 833 -779 1326 -948 101 -34 103 -35 153 -20
37 11 62 28 96 64 69 73 77 113 77 364 l0 209 -22 -5 c-157 -38 -422 -34 -563
8 -121 35 -216 83 -304 154 -104 82 -172 172 -241 318 -95 199 -163 288 -319
411 -81 65 -87 107 -20 131 74 26 193 7 307 -50 79 -38 194 -150 272 -264 94
-136 227 -223 405 -266 77 -18 111 -20 230 -16 93 3 159 10 198 22 l57 18 0
74 c0 95 17 204 42 271 11 29 18 54 16 56 -1 1 -59 15 -128 30 -643 144 -1082
489 -1244 976 -50 153 -69 277 -69 460 0 388 109 701 340 974 l58 69 -32 66
c-62 124 -85 319 -59 488 17 111 60 235 105 298 l28 40 64 -3 c264 -10 542
-130 756 -326 l72 -66 103 29 c380 106 925 106 1294 -1 l80 -24 65 59 c213
194 464 304 760 332 66 6 67 6 88 -24 98 -137 148 -383 121 -591 -12 -97 -53
-244 -70 -255 -5 -3 21 -43 58 -89 162 -201 263 -443 303 -726 18 -129 15
-386 -5 -505 -88 -503 -430 -884 -980 -1090 -101 -37 -389 -115 -427 -115 -16
0 -19 -4 -14 -18 52 -118 49 -84 55 -717 5 -574 6 -591 26 -636 30 -64 87
-116 147 -134 50 -15 52 -14 153 20 390 133 776 378 1095 695 246 244 425 492
574 795 213 433 308 842 308 1320 0 486 -98 902 -314 1335 -145 289 -304 513
-529 744 -302 310 -630 532 -1019 691 -425 173 -919 251 -1351 214z"/>
</g>
</svg>
