<?xml version="1.0" standalone="no"?>
<!DOCTYPE svg PUBLIC "-//W3C//DTD SVG 20010904//EN"
 "http://www.w3.org/TR/2001/REC-SVG-20010904/DTD/svg10.dtd">
<svg version="1.0" xmlns="http://www.w3.org/2000/svg"
 width="302.000000pt" height="37.000000pt" viewBox="0 0 302.000000 37.000000"
 preserveAspectRatio="xMidYMid meet">

<g transform="translate(0.000000,37.000000) scale(0.100000,-0.100000)"
fill="#000000" stroke="none">
<path d="M105 353 c-46 -24 -66 -45 -86 -88 -31 -67 -19 -155 29 -208 28 -31
88 -57 132 -57 44 0 104 26 132 57 26 28 48 88 48 128 0 40 -22 100 -48 128
-47 53 -147 72 -207 40z"/>
<path d="M960 225 c0 -96 3 -115 15 -115 12 0 15 14 15 65 0 62 1 65 27 71 36
9 53 -17 53 -83 0 -40 4 -53 15 -53 22 0 21 117 -1 149 -14 20 -23 22 -55 18
-39 -5 -39 -5 -39 29 0 24 -5 34 -15 34 -12 0 -15 -19 -15 -115z"/>
<path d="M1360 225 c0 -91 3 -115 14 -115 7 0 27 -3 44 -6 46 -9 82 30 82 91
0 60 -28 90 -76 82 -33 -6 -34 -5 -34 29 0 24 -5 34 -15 34 -12 0 -15 -19 -15
-115z m98 13 c7 -7 12 -29 12 -50 0 -31 -5 -41 -24 -50 -41 -18 -56 -5 -56 51
0 30 5 51 13 54 22 9 43 7 55 -5z"/>
<path d="M730 315 c0 -8 9 -15 20 -15 11 0 20 7 20 15 0 8 -9 15 -20 15 -11 0
-20 -7 -20 -15z"/>
<path d="M830 302 c0 -10 -5 -23 -12 -30 -8 -8 -8 -15 0 -24 6 -8 12 -41 14
-73 l3 -60 38 -3 c29 -3 37 0 37 13 0 9 -6 15 -12 14 -34 -4 -38 2 -38 56 0
52 1 55 25 55 14 0 25 5 25 10 0 6 -11 10 -25 10 -20 0 -25 5 -25 25 0 16 -6
25 -15 25 -8 0 -15 -8 -15 -18z"/>
<path d="M558 270 c-22 -13 -40 -72 -33 -103 11 -41 39 -61 80 -54 26 4 35 2
35 -8 0 -21 -35 -36 -69 -29 -24 5 -31 3 -31 -10 0 -13 10 -16 48 -16 72 0 82
16 82 127 l0 91 -31 6 c-42 8 -61 7 -81 -4z m80 -72 c3 -44 1 -48 -22 -54 -36
-9 -52 0 -60 31 -10 39 17 77 52 73 25 -3 27 -7 30 -50z"/>
<path d="M740 190 c0 -64 3 -80 15 -80 12 0 15 16 15 80 0 64 -3 80 -15 80
-12 0 -15 -16 -15 -80z"/>
<path d="M1152 199 c4 -80 23 -105 68 -94 14 3 35 6 48 6 21 -1 22 3 22 79 0
64 -3 80 -15 80 -12 0 -15 -13 -15 -60 0 -55 -2 -61 -26 -72 -22 -11 -28 -10
-40 7 -8 10 -14 42 -14 72 0 42 -3 53 -16 53 -14 0 -16 -11 -12 -71z"/>
</g>
</svg>
